<mxfile host="app.diagrams.net" modified="2023-06-24T09:04:18.528Z" agent="Mozilla/5.0 (X11; Linux x86_64; rv:109.0) Gecko/20100101 Firefox/114.0" etag="CHw8GOG4rgm1xozBWKu6" version="21.5.0" type="device">
  <diagram name="Page-1" id="Page-1">
    <mxGraphModel dx="1434" dy="899" grid="1" gridSize="10" guides="1" tooltips="1" connect="1" arrows="1" fold="1" page="1" pageScale="1" pageWidth="850" pageHeight="1100" math="0" shadow="0">
      <root>
        <mxCell id="0" />
        <mxCell id="1" value="Connector" parent="0" />
        <mxCell id="r0mgfz6IdKgSaTeHQ_le-33" value="&lt;font style=&quot;font-size: 24px;&quot;&gt;VPN Mesh network&lt;/font&gt;" style="ellipse;shape=cloud;whiteSpace=wrap;html=1;" parent="1" vertex="1">
          <mxGeometry x="170" y="530" width="320" height="240" as="geometry" />
        </mxCell>
        <mxCell id="r0mgfz6IdKgSaTeHQ_le-42" value="" style="group" parent="1" vertex="1" connectable="0">
          <mxGeometry x="591" y="788" width="709" height="251" as="geometry" />
        </mxCell>
        <mxCell id="b6oYJSDJwjR9OZKanJwb-46" value="" style="rounded=1;whiteSpace=wrap;html=1;hachureGap=4;pointerEvents=0;strokeWidth=2;" parent="r0mgfz6IdKgSaTeHQ_le-42" vertex="1">
          <mxGeometry x="119" width="590" height="251" as="geometry" />
        </mxCell>
        <mxCell id="5" value="" style="verticalAlign=middle;align=center;vsdxID=5;shape=stencil(nZBLDoAgDERP0z3SIyjew0SURgSD+Lu9kMZoXLhwN9O+tukAlrNpJg1SzDH4QW/URgNYgZTkjA4UkwJUgGXng+6DX1zLfmoymdXo17xh5zmRJ6Q42BWCfc2oJfdAr+Yv+AP9Cb7OJ3H/2JG1HNGz/84klThPVCc=);strokeWidth=2;labelBackgroundColor=none;rounded=0;html=1;whiteSpace=wrap;" parent="r0mgfz6IdKgSaTeHQ_le-42" vertex="1">
          <mxGeometry x="149" y="40" width="320" height="172" as="geometry" />
        </mxCell>
        <mxCell id="14" value="&lt;font data-darkreader-inline-color=&quot;&quot; style=&quot;font-size: 22px; font-family: &amp;quot;calibri&amp;quot;; color: rgb(0, 0, 0); direction: ltr; letter-spacing: 0px; line-height: 120%; opacity: 1; --darkreader-inline-color: #e8e6e3;&quot;&gt;&lt;font style=&quot;font-size: 28px&quot;&gt;VM&lt;br&gt;&lt;/font&gt;&lt;/font&gt;" style="verticalAlign=middle;align=center;vsdxID=19;fillColor=none;gradientColor=none;shape=stencil(nZBLDoAgDERP0z3SIyjew0SURgSD+Lu9kMZoXLhwN9O+tukAlrNpJg1SzDH4QW/URgNYgZTkjA4UkwJUgGXng+6DX1zLfmoymdXo17xh5zmRJ6Q42BWCfc2oJfdAr+Yv+AP9Cb7OJ3H/2JG1HNGz/84klThPVCc=);strokeColor=none;labelBackgroundColor=none;rounded=0;html=1;whiteSpace=wrap;" parent="r0mgfz6IdKgSaTeHQ_le-42" vertex="1">
          <mxGeometry x="150" y="152" width="320" height="53" as="geometry" />
        </mxCell>
        <mxCell id="15" value="&lt;font data-darkreader-inline-color=&quot;&quot; style=&quot;font-size: 28px; font-family: Calibri; color: rgb(0, 0, 0); direction: ltr; letter-spacing: 0px; line-height: 120%; opacity: 1; --darkreader-inline-color: #e8e6e3;&quot;&gt;Server&lt;br&gt;&lt;/font&gt;" style="verticalAlign=middle;align=center;vsdxID=20;fillColor=none;gradientColor=none;shape=stencil(nZBLDoAgDERP0z3SIyjew0SURgSD+Lu9kMZoXLhwN9O+tukAlrNpJg1SzDH4QW/URgNYgZTkjA4UkwJUgGXng+6DX1zLfmoymdXo17xh5zmRJ6Q42BWCfc2oJfdAr+Yv+AP9Cb7OJ3H/2JG1HNGz/84klThPVCc=);strokeColor=none;labelBackgroundColor=none;rounded=0;html=1;whiteSpace=wrap;" parent="r0mgfz6IdKgSaTeHQ_le-42" vertex="1">
          <mxGeometry x="535" y="152" width="125" height="53" as="geometry" />
        </mxCell>
        <mxCell id="eZtIASL5zvcn_9goES__-33" value="&lt;h2&gt;Controller Daemon&lt;/h2&gt;" style="vsdxID=12;fillColor=#0050ef;shape=stencil(nZBLDoAgDERP0z3SIyjew0SURgSD+Lu9kMZoXLhwN9O+tukAlrNpJg1SzDH4QW/URgNYgZTkjA4UkwJUgGXng+6DX1zLfmoymdXo17xh5zmRJ6Q42BWCfc2oJfdAr+Yv+AP9Cb7OJ3H/2JG1HNGz/84klThPVCc=);strokeColor=#001DBC;strokeWidth=3;labelBackgroundColor=none;rounded=0;html=1;whiteSpace=wrap;fontColor=#ffffff;" parent="r0mgfz6IdKgSaTeHQ_le-42" vertex="1">
          <mxGeometry x="189" y="63" width="260" height="70" as="geometry" />
        </mxCell>
        <mxCell id="eZtIASL5zvcn_9goES__-36" value="&lt;h2&gt;VM Manager&lt;br&gt;&lt;/h2&gt;" style="vsdxID=14;fillColor=#0050ef;shape=stencil(nZBLDoAgDERP0z3SIyjew0SURgSD+Lu9kMZoXLhwN9O+tukAlrNpJg1SzDH4QW/URgNYgZTkjA4UkwJUgGXng+6DX1zLfmoymdXo17xh5zmRJ6Q42BWCfc2oJfdAr+Yv+AP9Cb7OJ3H/2JG1HNGz/84klThPVCc=);strokeColor=#001DBC;strokeWidth=3;labelBackgroundColor=none;rounded=0;html=1;whiteSpace=wrap;fontColor=#ffffff;" parent="r0mgfz6IdKgSaTeHQ_le-42" vertex="1">
          <mxGeometry x="499" y="40" width="181" height="76" as="geometry" />
        </mxCell>
        <mxCell id="eZtIASL5zvcn_9goES__-38" style="vsdxID=48;edgeStyle=none;startArrow=none;endArrow=none;startSize=5;endSize=5;strokeWidth=3;strokeColor=#000000;spacingTop=0;spacingBottom=0;spacingLeft=0;spacingRight=0;verticalAlign=middle;html=1;labelBackgroundColor=#ffffff;rounded=0;entryX=0.995;entryY=0.269;entryDx=0;entryDy=0;entryPerimeter=0;" parent="r0mgfz6IdKgSaTeHQ_le-42" edge="1">
          <mxGeometry relative="1" as="geometry">
            <mxPoint x="499" y="72" as="sourcePoint" />
            <mxPoint x="470" y="72" as="targetPoint" />
          </mxGeometry>
        </mxCell>
        <mxCell id="r0mgfz6IdKgSaTeHQ_le-44" value="" style="group" parent="1" vertex="1" connectable="0">
          <mxGeometry x="710" y="220" width="590" height="251" as="geometry" />
        </mxCell>
        <mxCell id="eZtIASL5zvcn_9goES__-30" value="" style="rounded=1;whiteSpace=wrap;html=1;hachureGap=4;pointerEvents=0;strokeWidth=2;" parent="r0mgfz6IdKgSaTeHQ_le-44" vertex="1">
          <mxGeometry width="590" height="251" as="geometry" />
        </mxCell>
        <mxCell id="eZtIASL5zvcn_9goES__-32" value="&lt;font data-darkreader-inline-color=&quot;&quot; style=&quot;font-size: 28px; font-family: &amp;quot;calibri&amp;quot;; color: rgb(0, 0, 0); direction: ltr; letter-spacing: 0px; line-height: 120%; opacity: 1; --darkreader-inline-color: #e8e6e3;&quot;&gt;Admin&lt;br&gt;&lt;/font&gt;" style="verticalAlign=middle;align=center;vsdxID=28;fillColor=none;gradientColor=none;shape=stencil(nZBLDoAgDERP0z3SIyjew0SURgSD+Lu9kMZoXLhwN9O+tukAlrNpJg1SzDH4QW/URgNYgZTkjA4UkwJUgGXng+6DX1zLfmoymdXo17xh5zmRJ6Q42BWCfc2oJfdAr+Yv+AP9Cb7OJ3H/2JG1HNGz/84klThPVCc=);strokeColor=none;labelBackgroundColor=none;rounded=0;html=1;whiteSpace=wrap;" parent="r0mgfz6IdKgSaTeHQ_le-44" vertex="1">
          <mxGeometry x="413" y="140" width="135" height="99" as="geometry" />
        </mxCell>
        <mxCell id="eZtIASL5zvcn_9goES__-42" value="&lt;h2&gt;Controller Frontend&lt;br&gt;&lt;/h2&gt;" style="vsdxID=12;fillColor=#0050ef;shape=stencil(nZBLDoAgDERP0z3SIyjew0SURgSD+Lu9kMZoXLhwN9O+tukAlrNpJg1SzDH4QW/URgNYgZTkjA4UkwJUgGXng+6DX1zLfmoymdXo17xh5zmRJ6Q42BWCfc2oJfdAr+Yv+AP9Cb7OJ3H/2JG1HNGz/84klThPVCc=);strokeColor=#001DBC;strokeWidth=3;labelBackgroundColor=none;rounded=0;html=1;whiteSpace=wrap;fontColor=#ffffff;" parent="r0mgfz6IdKgSaTeHQ_le-44" vertex="1">
          <mxGeometry x="72.75" y="90" width="260" height="70" as="geometry" />
        </mxCell>
        <mxCell id="r0mgfz6IdKgSaTeHQ_le-34" value="" style="curved=1;endArrow=classic;html=1;rounded=0;entryX=0.012;entryY=0.39;entryDx=0;entryDy=0;entryPerimeter=0;strokeWidth=3;startArrow=classic;startFill=1;fillColor=#008a00;strokeColor=#005700;" parent="1" target="eZtIASL5zvcn_9goES__-42" edge="1">
          <mxGeometry width="50" height="50" relative="1" as="geometry">
            <mxPoint x="780" y="900" as="sourcePoint" />
            <mxPoint x="554.4999999999998" y="293.51800000000003" as="targetPoint" />
            <Array as="points">
              <mxPoint x="630" y="910" />
              <mxPoint x="180" y="580" />
            </Array>
          </mxGeometry>
        </mxCell>
      </root>
    </mxGraphModel>
  </diagram>
</mxfile>
